<?xml version="1.0" encoding="utf-8"?>
<!-- Generator: Adobe Illustrator 25.3.1, SVG Export Plug-In . SVG Version: 6.00 Build 0)  -->
<svg version="1.1" id="Layer_1" xmlns="http://www.w3.org/2000/svg" xmlns:xlink="http://www.w3.org/1999/xlink" x="0px" y="0px"
	 viewBox="0 0 250 250" style="enable-background:new 0 0 250 250;" xml:space="preserve">
<style type="text/css">
	.st0{fill:#212121;stroke:#F26D50;stroke-width:10;stroke-miterlimit:10;}
	.st1{fill:#FFFFFF;stroke:#000000;stroke-miterlimit:10;}
	.st2{fill:none;}
	.st3{fill:none;stroke:#000000;stroke-miterlimit:10;}
	.st4{fill:#F26D50;stroke:#F26D50;stroke-width:5;stroke-miterlimit:10;}
	.st5{fill:none;stroke:#F26D50;stroke-width:12;stroke-miterlimit:10;}
	.st6{fill:none;stroke:#F26D50;stroke-width:16;stroke-miterlimit:10;}
	.st7{fill:#F26D50;stroke:#F26D50;stroke-miterlimit:10;}
	.st8{fill:none;stroke:#F26D50;stroke-width:10;stroke-miterlimit:10;}
</style>
<path class="st0" d="M245,124c0,69-49,121-118,121S5,195,5,126S55,5,124,5S245,55,245,124z"/>
<path class="st1" d="M-107.5,34.5"/>
<path class="st2" d="M112,123"/>
<path class="st3" d="M237.5,36.5"/>
<path class="st4" d="M237.5,38.5"/>
<path class="st4" d="M9.5,38.5"/>
<line class="st3" x1="95.5" y1="80.5" x2="95.5" y2="80.5"/>
<path class="st5" d="M240.5,63.7"/>
<path class="st5" d="M10.5,63.7"/>
<path class="st3" d="M125.5,125.5"/>
<line class="st3" x1="38.5" y1="105.5" x2="38.5" y2="105.5"/>
<path class="st6" d="M9.5,36c43,31.5,116,36.5,116,36.5"/>
<path class="st6" d="M241.47,36c-43,31.5-116,36.5-116,36.5"/>
<ellipse class="st7" cx="125.5" cy="76.77" rx="6" ry="3.2"/>
<circle class="st7" cx="128" cy="73" r="0.5"/>
<ellipse class="st7" cx="126.29" cy="76.56" rx="6" ry="3.2"/>
<path class="st6" d="M126,64v185.35"/>
<line class="st8" x1="48" y1="105" x2="203" y2="105"/>
</svg>
