<svg id="Layer_1" data-name="Layer 1" xmlns="http://www.w3.org/2000/svg" viewBox="0 0 250 250" enable-background="new 0 0 250 250"><defs><style>.cls-1{fill:#212121;}.cls-1,.cls-5,.cls-6,.cls-7,.cls-8,.cls-9{stroke:#f26d50;}.cls-1,.cls-2,.cls-4,.cls-5,.cls-6,.cls-7,.cls-8,.cls-9{stroke-miterlimit:10;}.cls-1,.cls-9{stroke-width:10px;}.cls-2{fill:#fff;}.cls-2,.cls-4{stroke:#000;}.cls-3,.cls-4,.cls-6,.cls-7,.cls-9{fill:none;}.cls-5,.cls-8{fill:#f26d50;}.cls-5{stroke-width:5px;}.cls-6{stroke-width:12px;}.cls-7{stroke-width:16px;}</style></defs><path class="cls-1" d="M245,124c0,69-49,121-118,121S5,195,5,126,55,5,124,5,245,55,245,124Z" transform="translate(0 0)"/><path class="cls-2" d="M-107.5,34.5" transform="translate(0 0)"/><path class="cls-3" d="M112,123" transform="translate(0 0)"/><path class="cls-4" d="M237.5,36.5" transform="translate(0 0)"/><path class="cls-5" d="M237.5,38.5" transform="translate(0 0)"/><path class="cls-5" d="M9.5,38.5" transform="translate(0 0)"/><line class="cls-4" x1="95.5" y1="80.5" x2="95.5" y2="80.5"/><path class="cls-6" d="M240.5,63.7" transform="translate(0 0)"/><path class="cls-6" d="M10.5,63.7" transform="translate(0 0)"/><path class="cls-4" d="M125.5,125.5" transform="translate(0 0)"/><line class="cls-4" x1="38.5" y1="105.5" x2="38.5" y2="105.5"/><path class="cls-7" d="M9.5,36c43,31.5,116,36.5,116,36.5" transform="translate(0 0)"/><path class="cls-7" d="M241.47,36c-43,31.5-116,36.5-116,36.5" transform="translate(0 0)"/><ellipse class="cls-8" cx="125.5" cy="76.77" rx="6" ry="3.2"/><circle class="cls-8" cx="128" cy="73" r="0.5"/><ellipse class="cls-8" cx="126.29" cy="76.56" rx="6" ry="3.2"/><path class="cls-7" d="M126,64V249.35" transform="translate(0 0)"/><line class="cls-9" x1="48" y1="105" x2="203" y2="105"/></svg>